<svg width="40" height="48" viewBox="0 0 40 48" fill="none" xmlns="http://www.w3.org/2000/svg">
<path d="M33.9457 37.9412L31.7697 34.816L27.8529 37.0708L30.6817 40.5524L31.9873 38.594L33.9457 37.9412Z" fill="#0E5E0A"/>
<path d="M28.4064 42.7231L27.8528 37.0708L22.7823 37.0991L22.7824 43.4261L25.5944 42.0201L28.4064 42.7231Z" fill="#0E5E0A"/>
<path d="M17.1582 46.2382L22.7824 37.0991L17.6982 34.2856L12.9402 42.7231L15.8284 43.663L17.1582 46.2382Z" fill="#0E5E0A"/>
<path d="M8.01894 40.6142L17.6982 34.2856L14.7969 30.1076L5.2069 35.6931L8.01894 37.0991L8.01894 40.6142Z" fill="#0E5E0A"/>
<path d="M2.39489 30.7719L14.7969 30.1076L14.7969 24.5371L1.69187 25.1478L3.87176 28.4357L2.39489 30.7719Z" fill="#0E5E0A"/>
<path d="M2.32329 20.1933L14.797 24.5371L17.1585 19.5238L3.96496 14.3729L5.58143 18.6379L2.32329 20.1933Z" fill="#0E5E0A"/>
<path d="M8.22213 9.90294L17.1582 19.5238L21.3762 16.7117L12.3876 5.51877L11.8296 10.0456L8.22213 9.90294Z" fill="#0E5E0A"/>
<path d="M18.7508 2.64987L21.3764 16.7118C21.4643 16.7118 24.6938 16.2431 26.2975 16.0088L24.7291 1.73723L21.5144 4.97298L18.7508 2.64987Z" fill="#0E5E0A"/>
<path d="M31.1026 3.3949L26.2975 16.0088L30.8993 17.408L36.8627 5.23709L32.5442 6.70492L31.1026 3.3949Z" fill="#0E5E0A"/>
<path d="M30.8993 17.408C29.6904 16.9438 26.8777 16.0088 26.2975 16.0088C25.7172 16.0088 22.827 16.4797 21.3763 16.7118L17.1584 19.5238L14.7969 24.5371V30.1077L17.6982 34.2856L22.7824 37.0991L27.8529 37.0709L32.2049 35.6864" stroke="#0E5E0A"/>
</svg>
